# xmcd
# 
# Track frame offsets:
#     150
#     22331
#     37585
#     56755
#     68292
#     86488
#     103309
#     116483
#     137469
#     161138
#     181851
# 
# Disc length: 2459
# 
# Revision: 6
# Processed by: cddbd v1.5.2PL0 Copyright (c) Steve Scherf et al.
# Submitted via: fre:ac v1.1beta1pre5
# 
DISCID=8909990b
DTITLE=Buddy Guy - Rhythm and Blues - RYTHEM
DYEAR=2013
DGENRE=Blues
TTITLE0=Best in Town (ft The Muscle Shoals Horns)
TTITLE1=Justifyin'
TTITLE2=I Go By Feel
TTITLE3=Messin' with the Kid (ft Kid Rock)
TTITLE4=What's Up with That Woman (ft The Muscle Shoals Horns)
TTITLE5=One Day Away (ft Keith Urban)
TTITLE6=Well I Done Got Over It
TTITLE7=What You Gonna Do About Me (ft Beth Hart and The Muscle Shoals Horns)
TTITLE8=The Devil's Daughter
TTITLE9=Whiskey Ghost
TTITLE10=Rhythm Inner Groove
EXTD=YEAR: 2013
EXTT0=
EXTT1=
EXTT2=
EXTT3=
EXTT4=
EXTT5=
EXTT6=
EXTT7=
EXTT8=
EXTT9=
EXTT10=
PLAYORDER=
